<svg width="319" height="360" viewBox="0 0 319 360" fill="none" xmlns="http://www.w3.org/2000/svg">
<path d="M12.1615 31.9434C12.0781 31.3162 12.5907 30.7701 13.2219 30.8139L90.6108 36.1775C92.7769 36.3276 94.7924 35.0625 95.5988 33.0464L103.685 12.8319C103.874 12.3585 104.389 12.1033 104.881 12.2398L117.795 15.8272C118.354 15.9824 118.818 16.3724 119.067 16.8962L131.928 43.9721C133.333 46.9314 135.985 49.1101 139.161 49.9152L305.933 92.1956C306.676 92.3838 306.94 93.3027 306.41 93.8562L181.887 224.003C181.584 224.32 181.523 224.797 181.736 225.18L248.953 346.011C249.324 346.678 248.842 347.497 248.079 347.497H103.203H43.1296C42.5773 347.497 42.1296 347.049 42.1296 346.497V257.947C42.1296 252.234 39.6866 246.794 35.4169 242.998L20.8223 230.025C20.4372 229.683 20.3752 229.104 20.6793 228.688L30.8791 214.73C33.9186 210.571 35.2359 205.399 34.5566 200.293L12.1615 31.9434Z" stroke="black" stroke-width="24"/>
</svg>
