<svg width="500" height="500" viewBox="0 0 500 500" fill="none" xmlns="http://www.w3.org/2000/svg">
<mask id="mask0" mask-type="alpha" maskUnits="userSpaceOnUse" x="0" y="0" width="500" height="500">
<rect y="0.000366211" width="499.999" height="500" fill="#C4C4C4"/>
</mask>
<g mask="url(#mask0)">
<path class="stroke" d="M120.777 114.085C119.859 107.186 125.498 101.18 132.441 101.661L197.611 106.177C199.777 106.328 201.792 105.062 202.599 103.046L209.686 85.3278C210.444 83.4338 212.505 82.4133 214.471 82.9593L224.795 85.8272C225.354 85.9824 225.818 86.3724 226.067 86.8962L238.928 113.972C240.333 116.931 242.985 119.11 246.161 119.915L397.971 158.402C405.396 160.285 408.035 169.474 402.739 175.009L296.026 286.542C291.478 291.295 290.558 298.456 293.755 304.204L350.992 407.094C353.588 411.76 350.214 417.497 344.875 417.497H210.203H163.13C155.398 417.497 149.13 411.229 149.13 403.497V327.946C149.13 322.234 146.687 316.794 142.417 312.998L135.293 306.666C130.672 302.558 129.929 295.61 133.577 290.617L137.879 284.73C140.919 280.571 142.236 275.399 141.557 270.293L120.777 114.085Z" stroke="black" stroke-width="12"/>
</g>
</svg>
